<svg width="711" height="264" viewBox="0 0 711 264" fill="none" xmlns="http://www.w3.org/2000/svg">
<path d="M45.3443 197.181C45.3443 191.5 43.0446 190.694 37.4822 190.694V189.633H60.2821V190.655C56.7245 190.655 55.2111 191.461 55.2111 197.141V216.58C54.0058 216.416 52.7912 216.331 51.5749 216.325C45.187 216.325 41.4525 221.474 29.0305 221.474C11.5375 221.474 0 208.679 0 189.417C0 170.155 11.282 157.379 28.9323 157.379C39.4084 157.379 44.4794 161.723 47.9387 161.723C50.5922 161.723 51.2998 159.757 51.4767 157.792H52.3808V180.493H51.398C50.2384 167.541 41.7867 159.875 31.5857 159.875C18.4561 159.875 11.5375 169.054 11.5375 189.456C11.5375 209.858 18.4561 218.664 31.1926 218.664C37.8557 218.664 45.2263 216.541 45.2263 211.824L45.3443 197.181Z" fill="#979A84"/>
<path d="M84.3206 180.297C78.5616 180.297 73.412 183.127 73.412 186.193C73.412 188.591 76.6944 188.002 76.6944 191.834C76.7134 192.486 76.5915 193.133 76.337 193.733C76.0825 194.332 75.7014 194.87 75.2198 195.309C74.7382 195.747 74.1675 196.077 73.5468 196.274C72.926 196.472 72.2699 196.533 71.6234 196.453C70.9695 196.487 70.3161 196.38 69.7071 196.139C69.0982 195.899 68.5479 195.53 68.0934 195.059C67.6389 194.588 67.2907 194.024 67.0723 193.407C66.854 192.79 66.7705 192.133 66.8276 191.481C66.8276 185.348 74.0213 178.43 85.5588 178.43C93.5585 178.43 103.052 181.535 103.052 191.913V214.045C103.052 216.718 104.113 217.504 105.705 217.504C106.814 217.473 107.866 217.007 108.634 216.207L109.086 216.738C106.157 220.02 103.759 221.455 100.398 221.455C96.4674 221.455 94.0891 219.489 94.0891 215.322V208.541C90.9836 218.487 83.8882 221.514 77.3037 221.514C70.7193 221.514 66.2969 218.212 66.2969 212.276C66.2969 207.126 69.5007 202.625 79.7016 198.36C82.4533 197.2 84.6744 196.237 87.0723 194.979C92.5757 192.326 94.266 191.599 94.0891 187.864C93.814 181.653 89.5685 180.297 84.2616 180.297M94.0891 193.662L91.0623 195.176C79.7016 200.778 75.6134 204.374 75.6134 210.31C75.6134 215.028 77.9327 216.482 82.5516 216.482C88.743 216.482 93.244 211.863 93.5191 202.055C93.5191 201.407 93.5191 200.778 93.5191 200.09L94.0891 193.662Z" fill="#979A84"/>
<path d="M138.017 189.063C138.017 185.86 140.788 185.624 140.788 183.167C140.788 181.909 140.788 180.238 137.663 180.238C130.273 180.238 125.87 185.938 125.87 197.928V215.028C125.87 218.232 127.108 219.647 132.887 219.647V220.531H111.482V219.647C114.942 219.647 116.888 218.939 116.888 215.716V184.759C116.888 180.828 115.649 180.238 111.482 180.238V179.354H125.929V188.474C127.894 180.612 132.592 178.371 138.528 178.371C144.464 178.371 148.355 182.302 148.355 187.157C148.433 187.886 148.352 188.622 148.117 189.316C147.882 190.01 147.499 190.645 146.994 191.176C146.489 191.707 145.874 192.122 145.193 192.392C144.512 192.662 143.78 192.78 143.048 192.739C139.943 192.739 137.977 191.717 137.977 189.063" fill="#979A84"/>
<path d="M152.838 199.677C152.838 186.803 160.385 178.371 171.471 178.371C179.647 178.371 185.053 182.616 187.195 190.616V159.462C187.195 155.531 185.957 154.843 181.77 154.843V153.959H196.236V215.814C196.236 218.939 198.202 219.745 201.661 219.745V220.629H187.195V208.64C184.974 217.248 179.333 221.494 171.215 221.494C160.307 221.494 152.838 212.708 152.838 199.677ZM186.252 199.677C186.252 189.063 182.321 181.987 174.714 181.987C166.636 181.987 161.702 186.921 161.702 199.52C161.702 212.118 166.636 217.602 174.714 217.602C182.242 217.602 186.252 209.996 186.252 199.618" fill="#979A84"/>
<path d="M227.31 178.372C239.457 178.372 246.828 185.743 246.572 197.536H215.124C215.301 208.012 221.158 214.321 231.202 214.321C240.42 214.321 246.926 208.641 247.968 197.811H248.597C248.066 211.844 239.889 221.397 227.114 221.397C214.947 221.397 206.613 212.965 206.613 199.992C206.613 187.02 215.045 178.254 227.29 178.254M215.124 195.275C230.298 195.275 233.954 195.452 237.668 195.02C238.12 184.367 234.386 179.61 227.29 179.61C219.428 179.61 215.124 185.074 215.124 195.334" fill="#979A84"/>
<path d="M251.979 219.646C255.438 219.646 257.403 218.938 257.403 215.832V184.758C257.403 180.827 256.145 180.237 251.979 180.237V179.333H266.445V190.222C268.666 180.198 275.407 178.173 282.876 178.429C290.345 178.684 295.652 182.694 295.652 192.443V215.832C295.652 218.938 297.618 219.646 301.057 219.646V220.53H281.402V219.646C284.763 219.646 286.63 218.938 286.63 215.832V192.836C286.63 184.483 283.092 181.475 278.65 181.475C269.943 181.475 266.484 191.047 266.484 201.445V215.832C266.484 218.938 268.449 219.646 271.81 219.646V220.53H251.979V219.646Z" fill="#979A84"/>
<path d="M652.294 189.219C652.294 186.016 655.065 185.78 655.065 183.323C655.065 182.065 655.065 180.394 651.94 180.394C644.53 180.394 640.147 186.094 640.147 198.084V215.125C640.147 218.309 641.386 219.744 647.164 219.744V220.628H625.76V219.744C629.219 219.744 631.165 219.036 631.165 215.911V184.915C631.165 180.984 629.927 180.394 625.76 180.394V179.49H640.226V188.689C642.093 180.827 646.889 178.586 652.825 178.586C658.761 178.586 662.652 182.517 662.652 187.372C662.731 188.102 662.649 188.841 662.413 189.536C662.177 190.232 661.792 190.867 661.284 191.399C660.777 191.93 660.16 192.345 659.477 192.613C658.793 192.882 658.059 192.998 657.326 192.954C654.22 192.954 652.275 191.932 652.275 189.278" fill="#979A84"/>
<path d="M409.513 178.861C421.66 178.861 429.031 186.212 428.775 198.025H397.327C397.504 208.501 403.361 214.811 413.385 214.811C422.623 214.811 429.109 209.13 430.171 198.3H430.8C430.249 212.314 422.092 221.886 409.317 221.886C397.15 221.886 388.816 213.454 388.816 200.502C388.816 187.549 397.268 178.861 409.513 178.861ZM397.347 195.883C412.52 195.883 416.176 196.06 419.891 195.607C420.343 184.954 416.609 180.198 409.513 180.198C401.651 180.198 397.347 185.682 397.347 195.922" fill="#979A84"/>
<path d="M600.935 178.861C613.082 178.861 620.453 186.212 620.197 198.025H588.749C588.926 208.501 594.783 214.811 604.827 214.811C614.045 214.811 620.551 209.13 621.593 198.3H622.221C621.691 212.314 613.514 221.886 600.739 221.886C588.572 221.886 580.238 213.454 580.238 200.502C580.238 187.549 588.69 178.861 600.935 178.861ZM588.769 195.883C603.942 195.883 607.598 196.06 611.313 195.607C611.765 184.954 608.031 180.198 600.935 180.198C593.073 180.198 588.769 185.682 588.769 195.922" fill="#979A84"/>
<path d="M327.316 219.588C331.935 219.588 334.058 218.861 334.058 213.102V166.067C334.058 160.288 331.935 159.581 327.316 159.581V158.52H356.17C370.184 158.52 378.262 164.632 378.262 174.853C378.262 186.292 367.884 191.088 357.055 191.088C353.414 191.204 349.806 190.378 346.578 188.69C351.551 194.587 354.126 196.218 360.16 196.218H363.187L374.174 210.782C379.677 218.507 381.014 219.667 386.085 219.667V220.728H368.395L344.102 189.28V213.102C344.102 218.861 346.677 219.588 351.197 219.588V220.649H327.316V219.588ZM355.462 188.69C363.324 188.69 367.786 184.13 367.786 174.735C367.786 166.46 364.071 159.718 355.816 159.718H350.745C345.773 159.718 344.18 161.055 344.18 165.32V180.828C344.18 188.1 350.922 188.69 355.462 188.69Z" fill="#979A84"/>
<path d="M463.997 192.325C463.997 188.394 467.279 187.687 467.279 185.269C467.279 182.439 463.545 180.139 458.847 180.139C449.963 180.139 444.283 186.822 444.283 197.22C444.283 207.951 450.769 214.437 460.538 214.437C469.933 214.437 476.498 208.05 477.303 197.121L478.011 197.22C477.48 211.764 469.402 221.612 456.528 221.612C444.027 221.612 435.949 212.747 435.949 200.227C435.949 187.176 444.991 178.488 457.334 178.488C468.085 178.488 474.65 185.761 474.65 191.893C474.712 192.62 474.618 193.352 474.376 194.04C474.134 194.728 473.748 195.357 473.244 195.884C472.741 196.412 472.131 196.827 471.455 197.101C470.779 197.375 470.052 197.503 469.324 197.475C468.625 197.532 467.922 197.439 467.262 197.203C466.602 196.966 466 196.592 465.496 196.105C464.992 195.617 464.597 195.028 464.339 194.377C464.081 193.725 463.964 193.026 463.997 192.325Z" fill="#979A84"/>
<path d="M482.65 199.971C482.65 187.097 491.436 178.488 504.821 178.488C518.206 178.488 527.012 187.097 527.012 199.971C527.012 212.845 518.226 221.592 504.821 221.592C491.417 221.592 482.65 212.904 482.65 199.971ZM517.617 199.971C517.617 186.036 513.175 179.884 504.821 179.884C496.468 179.884 492.144 186.036 492.144 199.971C492.144 213.907 496.488 220.137 504.821 220.137C513.155 220.137 517.617 214.064 517.617 200.129" fill="#979A84"/>
<path d="M557.299 220.825H551.874L537.487 188.512C534.656 181.77 533.398 180.355 530.293 180.355V179.451H551.167V180.355C546.449 180.355 544.68 182.734 547.236 188.591L558.066 212.924L566.753 191.008C569.426 184.07 567.205 180.355 561.171 180.355V179.451H576.895V180.355C572.709 180.355 571.942 183.716 569.033 191.264L557.299 220.825Z" fill="#979A84"/>
<path d="M663.262 180.355V179.451H684.391V180.355C679.851 180.355 678.18 182.321 680.46 187.628L692.351 217.11L700.705 190.93C702.926 183.913 700.528 180.454 694.572 180.277V179.451H710.552V180.355C706.208 180.611 704.832 183.815 702.257 191.893L690.464 228.451C688.165 235.37 684.922 240.244 678.357 240.244C672.46 240.244 667.704 236.313 667.704 231.183C667.631 230.451 667.715 229.712 667.95 229.015C668.186 228.317 668.568 227.679 669.07 227.141C669.573 226.603 670.184 226.179 670.864 225.896C671.543 225.614 672.275 225.48 673.011 225.503C676.136 225.503 678.082 227.056 678.082 230.161C678.082 233.719 674.976 234.427 674.976 236.549C674.976 237.964 676.136 238.77 678.534 238.77C679.643 238.839 680.753 238.671 681.793 238.279C682.832 237.887 683.777 237.279 684.564 236.496C685.352 235.712 685.964 234.77 686.361 233.733C686.758 232.695 686.931 231.585 686.867 230.476C686.867 227.449 685.629 223.734 683.31 218.231L670.711 187.785C667.782 181.043 666.19 180.513 663.262 180.336" fill="#979A84"/>
<path d="M384.596 15.2794C384.546 16.1067 384.428 16.9285 384.243 17.7363C383.683 20.1918 382.475 22.4521 380.744 24.2815C379.325 25.8125 377.587 27.0134 375.653 27.7997C373.876 28.5206 371.968 28.862 370.052 28.8021C366.686 28.8904 363.402 27.7517 360.814 25.5983C358.968 24.1156 357.551 22.1687 356.706 19.9573C356.151 18.4366 355.84 16.8381 355.782 15.2204C355.635 13.9865 355.635 12.7396 355.782 11.5056C355.945 10.5724 356.236 9.66624 356.647 8.81288C357.376 7.30284 358.338 5.91666 359.497 4.70496C360.748 3.47187 362.196 2.45559 363.782 1.69773C364.879 1.13959 366.041 0.717175 367.241 0.439799C368.688 0.0525525 370.191 -0.0804585 371.683 0.0466971C374.083 0.338059 376.383 1.1788 378.405 2.50359C379.503 3.27368 380.489 4.19323 381.334 5.23565C382.314 6.33191 383.098 7.58847 383.653 8.95046C384.043 9.90811 384.307 10.9124 384.439 11.938C384.439 12.5277 384.439 13.0977 384.655 13.6873C384.695 14.2186 384.675 14.7525 384.596 15.2794Z" fill="#979A84"/>
<path d="M404.212 53.2558C402.548 53.8201 400.838 54.241 399.102 54.5137C396.272 55.0444 393.461 55.4768 390.591 55.7913C389.294 55.9289 387.977 56.1058 386.66 56.1844C384.695 56.322 382.887 56.5775 381.019 56.774L372.902 57.6585C370.425 57.9533 367.968 58.2875 365.492 58.5627C363.762 58.7592 362.013 58.8771 360.264 59.054C358.966 59.172 357.689 59.3489 356.333 59.4471C354.151 59.5651 351.969 59.8009 349.787 60.0368C347.606 60.2727 344.874 60.5675 342.417 60.8623C339.96 61.1571 337.149 61.393 334.555 61.6485C331.96 61.904 329.444 62.1399 326.87 62.3561C324.806 62.5526 322.742 62.6902 320.659 62.8868C319.067 63.0244 317.455 63.2209 315.843 63.3389C314.255 63.4828 312.66 63.5288 311.067 63.4764C310.32 63.4764 309.553 63.4764 308.826 63.4764C306.709 63.4143 304.702 62.5169 303.244 60.9802C302.285 59.6989 301.682 58.1868 301.495 56.5971C300.958 53.7465 300.708 50.8493 300.748 47.9489C300.654 46.2369 300.82 44.5207 301.239 42.8582C301.51 41.8323 302.002 40.8781 302.681 40.0631C303.36 39.248 304.21 38.5919 305.17 38.141C306.56 37.4518 308.054 37.0001 309.593 36.8044C312.423 36.4675 315.277 36.3754 318.123 36.5293C320.678 36.5293 323.253 36.8044 325.828 36.8634C328.914 36.9617 331.96 37.1975 335.046 37.3548L337.994 37.512L347.94 38.0427C349.552 38.0427 351.183 38.0427 352.795 38.2393C354.878 38.3769 356.962 38.4948 359.065 38.6913C361.168 38.8879 362.76 38.9075 364.588 39.0255C367.831 39.2613 371.094 39.3989 374.415 39.6741C375.319 39.6741 376.223 39.6741 377.147 39.6741L386.228 40.1851C388.724 40.3227 391.24 40.4406 393.736 40.6372C396.232 40.8337 399.338 40.932 402.109 41.3644C403.228 41.4504 404.304 41.8276 405.232 42.4587C406.159 43.0897 406.906 43.9525 407.396 44.9613C407.857 45.6908 408.141 46.5178 408.226 47.3764C408.31 48.235 408.194 49.1016 407.884 49.907C407.575 50.7125 407.082 51.4346 406.445 52.016C405.807 52.5974 405.043 53.0219 404.212 53.2558Z" fill="#979A84"/>
<path d="M407.67 86.6881C407.544 87.7649 407.123 88.7859 406.453 89.6389C405.784 90.492 404.893 91.1439 403.877 91.5232C402.8 92.0222 401.624 92.2708 400.437 92.2505H397.528C394.566 92.291 391.605 92.1334 388.664 91.7787C384.733 91.4643 380.802 91.1694 376.871 90.737C374.296 90.4815 371.721 90.3243 369.166 90.0491L362.719 89.4398C360.754 89.2629 358.906 89.1253 357 88.9288C355.506 88.7912 353.992 88.6732 352.499 88.4963C351.005 88.3194 349.845 88.2801 348.568 88.1622C346.602 87.9657 344.519 87.7888 342.494 87.5332C340.47 87.2777 338.229 87.1008 336.106 86.9043C333.138 86.6291 330.21 86.3932 327.203 86.0591C324.195 85.725 321.168 85.2729 318.161 84.8012C316.785 84.625 315.453 84.1987 314.23 83.5433C313.47 83.187 312.819 82.6353 312.342 81.9446C311.866 81.2539 311.581 80.449 311.518 79.6122C311.42 78.6033 311.655 77.5901 312.188 76.7276C312.72 75.8651 313.52 75.2007 314.466 74.836C315.967 74.2663 317.521 73.8449 319.105 73.5781C321.07 73.1653 322.937 72.8116 324.864 72.4381C325.846 72.2416 326.829 72.1433 327.851 71.9664C329.522 71.6323 331.251 71.3964 332.942 71.1409L338.838 70.2957C341.806 69.8633 344.735 69.5685 347.762 69.1164C350.789 68.6643 353.442 68.4678 356.253 68.0747C358.218 67.7798 360.282 67.5243 362.267 67.2885L370.247 66.3057C372.39 66.0699 374.532 65.7947 376.674 65.4999C379.328 65.1264 381.962 64.7137 384.536 64.3599C385.735 64.183 386.993 64.124 388.212 63.9864C390.669 63.6719 393.145 63.5933 395.622 63.495C398.233 63.2068 400.871 63.692 403.209 64.8905C404.22 65.5058 405.079 66.3415 405.723 67.3353C406.366 68.329 406.776 69.4552 406.924 70.6298C407.355 73.5738 407.617 76.54 407.71 79.514C407.885 81.9026 407.872 84.3015 407.67 86.6881Z" fill="#979A84"/>
<path d="M386.425 111.058C386.052 112.376 385.258 113.535 384.165 114.36C382.253 115.909 379.864 116.749 377.404 116.739H336.128C333.748 116.749 331.431 115.968 329.544 114.517C328.252 113.527 327.153 112.308 326.301 110.921C325.455 109.674 324.965 108.219 324.885 106.714C324.86 105.805 325.021 104.899 325.359 104.054C325.697 103.209 326.205 102.442 326.851 101.801C328.819 99.764 331.296 98.2913 334.025 97.5355C336.209 96.8914 338.445 96.4377 340.708 96.1793C343.315 95.8472 345.942 95.7092 348.57 95.7665C350.005 95.7665 351.459 95.8648 352.894 96.022C353.975 96.14 355.095 96.1596 356.196 96.2775C357.297 96.3955 358.515 96.5527 359.675 96.7296C361.975 97.0834 364.235 97.4962 366.456 98.0072C368.677 98.5182 371.33 99.2455 373.689 99.9727C375.778 100.685 377.803 101.573 379.743 102.626C381.298 103.425 382.756 104.401 384.086 105.535C385.142 106.404 385.96 107.527 386.465 108.798C386.665 109.54 386.652 110.324 386.425 111.058Z" fill="#979A84"/>
<path d="M200.295 263.722V250.402H202.043L206.872 260.42L211.672 250.402H213.439V263.713H211.608V254.602L207.306 263.722H206.428L202.117 254.602V263.722H200.295Z" fill="#979A84"/>
<path d="M223.986 263.722V250.402H232.496V252.225H225.919V255.962H231.386V257.784H225.919V261.9H232.496V263.722H223.986Z" fill="#979A84"/>
<path d="M242.672 263.722V250.402H246.844C246.967 250.402 247.195 250.406 247.528 250.412C247.868 250.418 248.191 250.443 248.5 250.486C249.542 250.615 250.418 250.988 251.127 251.605C251.842 252.222 252.382 253.005 252.745 253.955C253.109 254.898 253.291 255.934 253.291 257.062C253.291 258.197 253.109 259.239 252.745 260.189C252.382 261.133 251.842 261.913 251.127 262.529C250.418 263.14 249.542 263.51 248.5 263.639C248.191 263.682 247.868 263.707 247.528 263.713C247.195 263.719 246.967 263.722 246.844 263.722H242.672ZM244.652 261.882H246.844C247.054 261.882 247.303 261.876 247.593 261.863C247.883 261.851 248.139 261.826 248.361 261.789C249.039 261.66 249.588 261.367 250.007 260.911C250.433 260.448 250.744 259.881 250.942 259.208C251.139 258.536 251.238 257.821 251.238 257.062C251.238 256.279 251.136 255.555 250.932 254.889C250.729 254.217 250.414 253.655 249.989 253.205C249.57 252.749 249.027 252.459 248.361 252.336C248.139 252.293 247.88 252.268 247.584 252.262C247.294 252.249 247.047 252.243 246.844 252.243H244.652V261.882Z" fill="#979A84"/>
<path d="M263.585 263.722V250.402H265.518V263.722H263.585Z" fill="#979A84"/>
<path d="M281.81 264C280.478 264 279.344 263.71 278.406 263.13C277.469 262.545 276.751 261.731 276.251 260.689C275.758 259.646 275.511 258.438 275.511 257.062C275.511 255.687 275.758 254.479 276.251 253.436C276.751 252.394 277.469 251.583 278.406 251.004C279.344 250.418 280.478 250.125 281.81 250.125C283.346 250.125 284.616 250.513 285.621 251.29C286.633 252.067 287.336 253.113 287.73 254.426L285.769 254.953C285.51 254.022 285.048 253.292 284.382 252.761C283.722 252.231 282.865 251.966 281.81 251.966C280.867 251.966 280.081 252.179 279.452 252.604C278.823 253.03 278.348 253.625 278.027 254.389C277.713 255.154 277.555 256.045 277.555 257.062C277.549 258.08 277.703 258.971 278.018 259.736C278.339 260.5 278.813 261.095 279.442 261.521C280.078 261.946 280.867 262.159 281.81 262.159C282.865 262.159 283.722 261.894 284.382 261.364C285.048 260.827 285.51 260.097 285.769 259.172L287.73 259.699C287.336 261.012 286.633 262.057 285.621 262.835C284.616 263.612 283.346 264 281.81 264Z" fill="#979A84"/>
<path d="M296.433 263.722L300.762 250.402H303.547L307.876 263.722H305.868L301.882 251.568H302.381L298.441 263.722H296.433ZM298.681 260.716V258.903H305.637V260.716H298.681Z" fill="#979A84"/>
<path d="M317.675 263.722V250.402H319.608V261.9H325.64V263.722H317.675Z" fill="#979A84"/>
<path d="M345.902 263.722V250.402H351.286C351.415 250.402 351.576 250.409 351.767 250.421C351.958 250.427 352.14 250.446 352.312 250.476C353.052 250.594 353.669 250.846 354.162 251.235C354.662 251.623 355.035 252.114 355.282 252.706C355.528 253.298 355.652 253.951 355.652 254.667C355.652 255.727 355.38 256.643 354.838 257.414C354.295 258.179 353.481 258.657 352.396 258.848L351.609 258.94H347.835V263.722H345.902ZM353.691 263.722L351.064 258.302L353.015 257.802L355.901 263.722H353.691ZM347.835 257.109H351.212C351.335 257.109 351.471 257.103 351.619 257.09C351.773 257.078 351.918 257.056 352.053 257.025C352.448 256.933 352.766 256.763 353.006 256.517C353.247 256.264 353.419 255.974 353.524 255.647C353.629 255.32 353.681 254.994 353.681 254.667C353.681 254.34 353.629 254.016 353.524 253.695C353.419 253.369 353.247 253.082 353.006 252.835C352.766 252.582 352.448 252.41 352.053 252.317C351.918 252.28 351.773 252.256 351.619 252.243C351.471 252.231 351.335 252.225 351.212 252.225H347.835V257.109Z" fill="#979A84"/>
<path d="M365.889 263.722V250.402H374.399V252.225H367.823V255.962H373.289V257.784H367.823V261.9H374.399V263.722H365.889Z" fill="#979A84"/>
<path d="M389.151 264C388.196 264 387.332 263.837 386.561 263.51C385.797 263.177 385.165 262.705 384.665 262.095C384.172 261.478 383.851 260.747 383.703 259.902L385.72 259.597C385.923 260.411 386.349 261.046 386.996 261.503C387.644 261.953 388.399 262.178 389.262 262.178C389.799 262.178 390.292 262.095 390.742 261.928C391.193 261.755 391.553 261.512 391.825 261.197C392.102 260.877 392.241 260.494 392.241 260.05C392.241 259.81 392.198 259.597 392.111 259.412C392.031 259.227 391.917 259.067 391.769 258.931C391.627 258.789 391.452 258.669 391.242 258.57C391.038 258.465 390.813 258.376 390.567 258.302L387.153 257.294C386.82 257.195 386.481 257.069 386.136 256.914C385.791 256.754 385.473 256.548 385.183 256.295C384.9 256.036 384.668 255.718 384.489 255.342C384.311 254.96 384.221 254.497 384.221 253.955C384.221 253.134 384.431 252.441 384.85 251.873C385.276 251.3 385.849 250.868 386.571 250.578C387.292 250.282 388.1 250.134 388.994 250.134C389.895 250.147 390.699 250.307 391.408 250.615C392.124 250.924 392.716 251.368 393.184 251.947C393.659 252.521 393.986 253.218 394.165 254.038L392.093 254.389C392 253.89 391.803 253.461 391.501 253.104C391.199 252.74 390.829 252.462 390.391 252.271C389.953 252.074 389.478 251.972 388.966 251.966C388.473 251.953 388.02 252.027 387.607 252.188C387.2 252.348 386.873 252.573 386.626 252.863C386.386 253.153 386.265 253.486 386.265 253.862C386.265 254.232 386.373 254.531 386.589 254.759C386.805 254.987 387.07 255.169 387.385 255.305C387.705 255.434 388.023 255.542 388.337 255.629L390.798 256.323C391.106 256.409 391.455 256.526 391.843 256.674C392.238 256.816 392.617 257.016 392.981 257.275C393.351 257.534 393.656 257.88 393.897 258.311C394.137 258.737 394.257 259.273 394.257 259.921C394.257 260.593 394.122 261.185 393.85 261.697C393.579 262.202 393.206 262.628 392.731 262.973C392.263 263.312 391.72 263.568 391.103 263.741C390.487 263.914 389.836 264 389.151 264Z" fill="#979A84"/>
<path d="M404.369 263.722V250.402H406.302V263.722H404.369Z" fill="#979A84"/>
<path d="M417.035 263.722V250.402H421.206C421.33 250.402 421.558 250.406 421.891 250.412C422.23 250.418 422.554 250.443 422.862 250.486C423.904 250.615 424.78 250.988 425.489 251.605C426.205 252.222 426.744 253.005 427.108 253.955C427.472 254.898 427.654 255.934 427.654 257.062C427.654 258.197 427.472 259.239 427.108 260.189C426.744 261.133 426.205 261.913 425.489 262.529C424.78 263.14 423.904 263.51 422.862 263.639C422.554 263.682 422.23 263.707 421.891 263.713C421.558 263.719 421.33 263.722 421.206 263.722H417.035ZM419.014 261.882H421.206C421.416 261.882 421.666 261.876 421.956 261.863C422.246 261.851 422.501 261.826 422.723 261.789C423.402 261.66 423.951 261.367 424.37 260.911C424.795 260.448 425.107 259.881 425.304 259.208C425.502 258.536 425.6 257.821 425.6 257.062C425.6 256.279 425.498 255.555 425.295 254.889C425.091 254.217 424.777 253.655 424.351 253.205C423.932 252.749 423.389 252.459 422.723 252.336C422.501 252.293 422.242 252.268 421.946 252.262C421.657 252.249 421.41 252.243 421.206 252.243H419.014V261.882Z" fill="#979A84"/>
<path d="M437.763 263.722V250.402H446.273V252.225H439.696V255.962H445.163V257.784H439.696V261.9H446.273V263.722H437.763Z" fill="#979A84"/>
<path d="M456.449 263.722V250.402H458.41L464.968 260.3V250.402H466.929V263.722H464.968L458.41 253.816V263.722H456.449Z" fill="#979A84"/>
<path d="M483.025 264C481.693 264 480.559 263.71 479.621 263.13C478.684 262.545 477.966 261.731 477.466 260.689C476.973 259.646 476.726 258.438 476.726 257.062C476.726 255.687 476.973 254.479 477.466 253.436C477.966 252.394 478.684 251.583 479.621 251.004C480.559 250.418 481.693 250.125 483.025 250.125C484.561 250.125 485.831 250.513 486.836 251.29C487.848 252.067 488.551 253.113 488.945 254.426L486.984 254.953C486.725 254.022 486.263 253.292 485.597 252.761C484.937 252.231 484.08 251.966 483.025 251.966C482.082 251.966 481.296 252.179 480.667 252.604C480.038 253.03 479.563 253.625 479.242 254.389C478.928 255.154 478.77 256.045 478.77 257.062C478.764 258.08 478.918 258.971 479.233 259.736C479.554 260.5 480.028 261.095 480.657 261.521C481.293 261.946 482.082 262.159 483.025 262.159C484.08 262.159 484.937 261.894 485.597 261.364C486.263 260.827 486.725 260.097 486.984 259.172L488.945 259.699C488.551 261.012 487.848 262.057 486.836 262.835C485.831 263.612 484.561 264 483.025 264Z" fill="#979A84"/>
<path d="M498.935 263.722V250.402H507.445V252.225H500.868V255.962H506.335V257.784H500.868V261.9H507.445V263.722H498.935Z" fill="#979A84"/>
</svg>
